<svg id="Layer_1" data-name="Layer 1" xmlns="http://www.w3.org/2000/svg" viewBox="0 0 227.55 197.05">
    <defs>
        <style>.cls-1{fill:#fff;stroke:#fff;stroke-miterlimit:10;}</style>
    </defs>
    <title>Logo_neg_outline</title>
    <path class="cls-1"
          d="M114.77,49.58c37.1,0,70.3,28.43,70.3,71.61,0,46.65-31.68,75.73-71.61,75.73-41.66,0-72-31.68-72-72.47C41.42,85.6,69,49.58,114.77,49.58Zm-4.34,8C86.12,57.61,64,78,64,118.59c0,40.36,22.13,70.09,53,70.09,26.25,0,46-19.53,46-61.41C162.94,81.7,138.85,57.61,110.43,57.61Z"
          transform="translate(-0.14 -0.37)"/>
    <path class="cls-1"
          d="M173.57,80.67c13.26-9.7,33.87-28,46.26-57.31C224.62,12,228.09,1.4,227,.89,225.29.1,216.76,25,195.49,44A103.08,103.08,0,0,1,158.56,65"
          transform="translate(-0.14 -0.37)"/>
    <path class="cls-1"
          d="M54.27,80.67C41,71,20.39,52.69,8,23.36,3.21,12-.26,1.4.85.89,2.55.1,11.07,25,32.34,44A103,103,0,0,0,69.28,65"
          transform="translate(-0.14 -0.37)"/>
</svg>

